<svg width="16" height="16" fill="none" xmlns="http://www.w3.org/2000/svg"><path d="M8 1.5A6.508 6.508 0 001.5 8c0 3.584 2.916 6.5 6.5 6.5s6.5-2.916 6.5-6.5S11.584 1.5 8 1.5zm0 1c3.043 0 5.5 2.457 5.5 5.5s-2.457 5.5-5.5 5.5A5.493 5.493 0 012.5 8c0-3.043 2.457-5.5 5.5-5.5zM7.953 5c-1.662 0-3 1.338-3 3s1.338 3 3 3c1.2 0 2.225-.719 2.703-1.735l-.906-.421A1.979 1.979 0 017.953 10c-1.139 0-2-.861-2-2 0-1.138.861-2 2-2 .801 0 1.475.47 1.797 1.157l.906-.423C10.178 5.72 9.152 5 7.952 5h.001z" fill="#fff"/></svg>