<svg width="1440" height="449" fill="none" xmlns="http://www.w3.org/2000/svg"><path d="M462.985 52.343C275.777 3.418 47.825 302.546-35 457.476l1495.5-1.5v-37.5c-92.16-120.274-209.21-252.824-256.22-287.139-114.48-102.335-245.034 11.722-296.003 81.542-57.444 80.727-124.496 46.887-150.842 19.876C630.564 111.257 508.272 61.856 462.985 52.343z" fill="#FFF2F6"/><path d="M483.038 6.918C276.602-47.032 42.331 281.16-49 452h1586l21.5-61.5c-101.62-132.625-206.2-258.637-258.04-296.476-126.23-112.845-270.19 12.925-326.398 89.915-63.343 89.016-137.282 51.702-166.333 21.917C667.827 71.882 532.976 17.408 483.038 6.918z" stroke="#FEDDE8"/></svg>