<svg width="178" height="35" fill="none" xmlns="http://www.w3.org/2000/svg"><path d="M168.288 29.333c0-2.568 2.117-4.682 4.686-4.682 2.57 0 4.686 2.114 4.686 4.682 0 2.568-2.116 4.683-4.686 4.683-2.569.075-4.686-2.04-4.686-4.683zM18.342 16.947c0-2.945-.604-5.211-1.738-6.646-1.134-1.435-2.872-2.19-5.215-2.19H8.895v18.201h1.89c2.57 0 4.534-.755 5.743-2.341 1.21-1.51 1.814-3.852 1.814-7.024zm8.918-.302c0 5.438-1.436 9.592-4.383 12.537-2.948 2.945-7.029 4.38-12.32 4.38H.28V1.087h10.959c5.064 0 8.994 1.36 11.79 4.003 2.872 2.643 4.232 6.495 4.232 11.555zm28.418 16.918h8.162V.935h-8.163v32.627zm19.65-12.16c0 2.115.302 3.7.831 4.758.53 1.057 1.436 1.662 2.721 1.662 1.285 0 2.192-.529 2.72-1.662.53-1.057.757-2.643.757-4.758 0-2.04-.227-3.625-.756-4.682-.53-1.058-1.436-1.586-2.721-1.586-1.285 0-2.116.528-2.72 1.586-.53.981-.832 2.567-.832 4.682zm15.342 0c0 3.927-1.058 7.024-3.099 9.29-2.116 2.19-4.988 3.323-8.766 3.323-3.628 0-6.425-1.133-8.54-3.399-2.117-2.266-3.175-5.362-3.175-9.214 0-3.927 1.058-7.024 3.099-9.214 2.116-2.19 4.988-3.247 8.767-3.247 2.343 0 4.383.528 6.197 1.51s3.174 2.492 4.157 4.38c.907 1.813 1.36 4.003 1.36 6.571zm3.25 12.16h8.162V9.319H93.92v24.244zm0-27.189h8.162V.936H93.92v5.438zm24.714 20.996c1.133 0 2.418-.303 3.93-.831v6.117c-1.134.453-2.116.831-3.174 1.058-.983.226-2.192.302-3.477.302-2.721 0-4.686-.68-5.971-2.04-1.209-1.359-1.814-3.474-1.814-6.344v-9.969h-2.871V9.32h2.871V3.126l8.238-1.435V9.32h5.215v6.269h-5.215v9.44c.076 1.586.832 2.341 2.268 2.341zm18.894 0c1.134 0 2.419-.303 3.93-.831v6.117c-1.133.453-2.116.831-3.174 1.058-.982.226-2.192.302-3.476.302-2.721 0-4.686-.68-5.896-2.04-1.209-1.359-1.813-3.474-1.813-6.344v-9.969h-2.872V9.32h2.872V3.051l8.238-1.36V9.32h5.214v6.269h-5.214v9.44c0 1.586.755 2.341 2.191 2.341zm14.285-8.913c.075-1.359.453-2.265 1.133-2.945.68-.604 1.436-.906 2.419-.906 1.058 0 1.889.377 2.494 1.057.604.68.982 1.662.982 2.794h-7.028zm11.563-6.721c-1.965-1.888-4.686-2.87-8.238-2.87-3.779 0-6.651 1.057-8.616 3.248-2.041 2.19-3.023 5.362-3.023 9.44 0 3.927 1.058 7.024 3.25 9.139 2.192 2.114 5.215 3.247 9.22 3.247 1.89 0 3.552-.151 4.913-.377 1.36-.227 2.645-.68 3.93-1.36l-1.285-5.438c-.907.378-1.814.68-2.645.831-1.209.302-2.494.453-3.93.453-1.587 0-2.796-.377-3.703-1.133-.907-.755-1.361-1.812-1.436-3.172h14.586v-3.7c-.151-3.626-1.134-6.42-3.023-8.308zM38.144 18.457c.075-1.359.453-2.265 1.133-2.945.68-.604 1.436-.906 2.419-.906 1.058 0 1.89.377 2.494 1.057.604.68.907 1.662.982 2.794h-7.028zm11.487-6.721c-1.965-1.888-4.685-2.87-8.237-2.87-3.78 0-6.651 1.057-8.616 3.248-1.965 2.19-3.024 5.362-3.024 9.44 0 3.927 1.058 7.024 3.25 9.139 2.192 2.114 5.215 3.247 9.145 3.247 1.89 0 3.552-.151 4.913-.377 1.36-.227 2.645-.68 3.93-1.36l-1.285-5.438c-.907.378-1.814.68-2.645.831-1.21.302-2.494.453-3.93.453-1.587 0-2.797-.377-3.704-1.133-.906-.755-1.36-1.812-1.435-3.172h14.586v-3.7c0-3.626-.983-6.42-2.948-8.308z" fill="#C1C1C1"/></svg>