<svg width="416" height="419" fill="none" xmlns="http://www.w3.org/2000/svg"><rect width="415.786" height="418.62" rx="8" fill="#F78CB6"/><path d="M361.885 245.297c0 85.476-59.664 130.992-152.974 139.067C89.582 367.766 53.246 321.353 53.246 235.876c0-85.476 69.292-154.768 154.768-154.768s153.871 78.713 153.871 164.189z" fill="#fff"/><path fill-rule="evenodd" clip-rule="evenodd" d="M321.511 343.939v-19.137a38.601 38.601 0 00-11.309-27.187 38.615 38.615 0 00-27.195-11.306H133.021a38.611 38.611 0 00-38.504 38.493v19.137a179.532 179.532 0 00113.497 40.425c41.361 0 81.453-14.28 113.497-40.425z" fill="#E7E3E7"/><path fill-rule="evenodd" clip-rule="evenodd" d="M193.438 383.781c4.795.383 9.663.584 14.585.584 4.923 0 9.626-.201 14.366-.565l-6.399-42.285-8.076-2.898-8.058 2.898-6.418 42.266z" fill="#D26070"/><path fill-rule="evenodd" clip-rule="evenodd" d="M222.954 323.125l-6.982 18.39h-16.135l-6.982-18.39 3.5-2.989 11.541-2.77 11.558 2.77 3.5 2.989z" fill="#A94B64"/><path fill-rule="evenodd" clip-rule="evenodd" d="M321.511 343.939v-19.137a38.6 38.6 0 00-11.309-27.187 38.615 38.615 0 00-27.195-11.306h-57.446l-3.008 1.822 10.72 33.026-6.964 62.223a178.685 178.685 0 0095.202-39.496v.055zm-226.994 0v-19.137a38.611 38.611 0 0138.504-38.493h57.428l3.026 1.822-10.72 33.026 6.964 62.223a178.682 178.682 0 01-95.202-39.441z" fill="#4C3B82"/><path fill-rule="evenodd" clip-rule="evenodd" d="M230.046 311.242l3.227 9.969-6.964 62.224a175.409 175.409 0 0021.549-3.518l14.056-27.157-17.155-54.222c-5.324 1.495-10.264 6.215-14.713 12.704z" fill="#30295E"/><path fill-rule="evenodd" clip-rule="evenodd" d="M208.005 195.707a31.166 31.166 0 0121.867 9.123 31.147 31.147 0 019.126 21.862v59.453a31.147 31.147 0 01-9.126 21.861 31.162 31.162 0 01-21.867 9.123 31.144 31.144 0 01-21.873-9.118 31.127 31.127 0 01-9.12-21.866v-59.38a31.125 31.125 0 019.095-21.914 31.144 31.144 0 0121.898-9.144z" fill="#F4CBBB"/><path fill-rule="evenodd" clip-rule="evenodd" d="M208.005 195.707a31.166 31.166 0 0121.867 9.123 31.147 31.147 0 019.126 21.862v51.032a62.687 62.687 0 01-26.763 5.997 63.021 63.021 0 01-35.35-10.936v-46.021a31.126 31.126 0 019.139-21.958 31.144 31.144 0 0121.981-9.099z" fill="#E4BAA9"/><path fill-rule="evenodd" clip-rule="evenodd" d="M125.893 186.522a19.77 19.77 0 005.43 14.116 19.788 19.788 0 0013.822 6.151h.929a76.569 76.569 0 01-3.099-20.924v-6.032c0-12.376-16.608-11.556-17.082 6.689zm164.242 0a19.77 19.77 0 01-5.43 14.116 19.787 19.787 0 01-13.821 6.151h-.93a77.199 77.199 0 003.099-20.924v-6.032c0-12.376 16.536-11.556 17.082 6.689z" fill="#EBBFAE"/><path fill-rule="evenodd" clip-rule="evenodd" d="M208.023 71.807c-35.787 0-65.048 30.256-65.048 67.218v61.111c0 36.963 29.261 67.2 65.048 67.2 35.769 0 65.03-30.237 65.03-67.2v-61.111c0-36.962-29.261-67.218-65.03-67.218z" fill="#F4CBBB"/><path fill-rule="evenodd" clip-rule="evenodd" d="M211.359 195.398c1.258 3.645 3.464 10.079 3.282 11.099-.273 1.404-7.766 1.823-9.735-.382-1.313-1.44.328-6.817 1.732-10.407 1.95-4.976 3.026-5.231 4.721-.31z" fill="#FBDDD2"/><path fill-rule="evenodd" clip-rule="evenodd" d="M185.526 154.863a2.839 2.839 0 011.482 1.58 2.815 2.815 0 01-.069 2.166 2.846 2.846 0 01-1.581 1.482 2.828 2.828 0 01-2.165-.07 18.635 18.635 0 00-16.736 1.075c-.316.213-.672.36-1.046.432a2.834 2.834 0 01-2.169-.459 2.841 2.841 0 01.188-4.784c10.775-6.78 22.078-1.44 22.096-1.422zm66.944 1.258a2.842 2.842 0 11-2.753 4.957 18.628 18.628 0 00-16.772-.291 2.848 2.848 0 01-2.165.196 2.82 2.82 0 01-1.664-1.399 2.865 2.865 0 011.204-3.846c11.303-5.905 22.114.364 22.15.383zm29.316 15.674s-8.733.2-8.733 8.038a27.444 27.444 0 01-4.886-18.226s-16.681-19.447-15.916-41.173c.766-21.725 17.666-26.355 17.666-26.355 40.637 11.866 11.869 40.626 11.869 77.716zm-147.562 0s8.751.2 8.751 8.038a27.444 27.444 0 004.886-18.226s16.681-19.447 15.916-41.173c-.766-21.725-17.684-26.355-17.684-26.355-40.637 11.866-11.869 40.626-11.869 77.716z" fill="#30295E"/><path fill-rule="evenodd" clip-rule="evenodd" d="M230.611 55.422a38.476 38.476 0 0139.966 2.563 38.457 38.457 0 0116.029 36.69 38.464 38.464 0 01-46.035 32.429 38.467 38.467 0 01-18.437-9.622 23.295 23.295 0 01-17.518 12.359 23.299 23.299 0 01-20.202-7.183 23.286 23.286 0 01-9.075 7.422 23.293 23.293 0 01-11.541 2.064 23.305 23.305 0 01-18.909-12.548 33.379 33.379 0 01-25.59-28.119 33.37 33.37 0 0130.187-37.645 33.38 33.38 0 0113.306 1.536 37.958 37.958 0 0133.919-20.915 37.958 37.958 0 0133.919 20.915l-.019.054z" fill="#30295E"/><path fill-rule="evenodd" clip-rule="evenodd" d="M208.005 317.275l21.877 21.032s8.113 4.757 11.34-2.15c3.227-6.908 13.017-49.939 13.017-49.939l-15.241-5.65s-.766 26.646-30.993 36.707z" fill="#fff"/><path fill-rule="evenodd" clip-rule="evenodd" d="M294.292 296.552a.864.864 0 111.276 1.166s-7.803 8.184-7.803 27.74v40.261l-1.823.857v-41.118c0-20.249 8.332-28.888 8.35-28.906z" fill="#1C1341"/><path fill-rule="evenodd" clip-rule="evenodd" d="M185.982 311.242l-3.227 9.915 6.964 62.223a175.216 175.216 0 01-21.549-3.517l-14.074-27.157 17.174-54.222c5.287 1.549 10.264 6.269 14.712 12.758z" fill="#30295E"/><path fill-rule="evenodd" clip-rule="evenodd" d="M208.005 317.275l-21.877 21.032s-8.131 4.757-11.34-2.15c-3.209-6.908-13.017-49.939-13.017-49.939l15.241-5.65s.784 26.646 30.993 36.707z" fill="#fff"/><path fill-rule="evenodd" clip-rule="evenodd" d="M121.718 296.552a.829.829 0 00-.611-.264.831.831 0 00-.611.264.846.846 0 00-.256.61.855.855 0 00.256.611s7.803 8.183 7.803 27.74v40.261l1.732.856v-41.172c-.036-20.249-8.277-28.888-8.313-28.906z" fill="#1C1341"/><path fill-rule="evenodd" clip-rule="evenodd" d="M175.499 192.135a8.053 8.053 0 007.445-4.973 8.051 8.051 0 00-1.747-8.779 8.059 8.059 0 00-13.756 5.696 8.075 8.075 0 008.058 8.056zm65.012 0a8.058 8.058 0 007.903-9.627 8.056 8.056 0 00-10.987-5.871 8.05 8.05 0 00-4.974 7.442 8.073 8.073 0 008.058 8.056z" fill="#30295E"/><path fill-rule="evenodd" clip-rule="evenodd" d="M222.243 220.659a14.228 14.228 0 01-8.663 13.611 14.247 14.247 0 01-11.132 0 14.234 14.234 0 01-8.663-13.611 2.623 2.623 0 012.625-2.607h23.208a2.624 2.624 0 012.625 2.607z" fill="#FFCCE0"/></svg>