<svg width="173" height="389" fill="none" xmlns="http://www.w3.org/2000/svg"><path fill-rule="evenodd" clip-rule="evenodd" d="M-78.612 248.8c-7.195-11.938-20.03-18.651-27.35-30.512-9.031-14.631-23.505-29.528-20.096-46.358 3.399-16.783 24.146-22.781 36.498-34.631 12.403-11.9 21.57-26.25 36.264-35.177 20.398-12.393 44.264-38.208 65.03-26.363 22.092 12.6 8.341 48.78 16.488 72.859 5.11 15.102 17.682 26.008 22.14 41.314 5.502 18.89 13.011 38.843 6.622 57.429-6.772 19.703-24.37 33.295-41.753 44.779-18.93 12.505-41.632 33.463-62.262 23.936-22.962-10.605-18.528-45.616-31.581-67.276z" fill="#FFECF2"/><path clip-rule="evenodd" d="M-80.327 258.744c-7.86-13.449-22.204-20.817-30.209-34.175-9.874-16.478-25.887-33.138-21.668-52.396 4.207-19.203 27.764-26.496 41.972-40.275 14.267-13.837 24.933-30.395 41.72-40.893 23.304-14.574 50.819-44.523 74.005-31.48 24.666 13.875 8.343 55.414 17.01 82.679 5.437 17.101 19.392 29.255 24.089 46.602 5.796 21.409 13.834 43.986 6.212 65.311-8.08 22.606-28.25 38.486-48.13 51.958-21.648 14.67-47.742 39.058-70.826 28.653-25.692-11.581-19.914-51.584-34.175-75.984z" stroke="#FFD0E0" stroke-width="2"/></svg>