<svg width="50" height="50" fill="none" xmlns="http://www.w3.org/2000/svg"><g clip-path="url(#clip0)"><path d="M50.175 26.66v-.002l-.696-.751.06-.165h0L38.32 21.613V8.202h0a.967.967 0 00-.636-.956s0 0 0 0L25.83 2.885s0 0 0 0a.946.946 0 00-.662 0s0 0 0 0L13.315 7.247h0a.972.972 0 00-.57.567h-.065v13.799l-11.22 4.13h0a.972.972 0 00-.57.566H.826v14.529h0c0 .401.247.773.635.915l11.854 4.362s0 0 0 0c.214.08.448.08.662 0 0 0 0 0 0 0l11.524-4.24 11.524 4.24s0 0 0 0c.213.08.448.08.662 0 0 0 0 0 0 0l11.854-4.362a.968.968 0 00.554-.527h.081V26.872h0v0h0v-.212zM12.68 31.703v12.104l-9.924-3.652V28.051l9.924 3.652zm.903-8.347l9.036 3.325-8.974 3.302-9.035-3.325 8.973-3.302zm10.952 4.695v12.104l-9.925 3.652V31.703l9.925-3.652zm0-14.843v12.058l-9.925-3.653V9.555l9.925 3.652zm-8.07-5.045L25.5 4.838l9.035 3.325-9.035 3.324-9.035-3.324zm10 5.044l9.924-3.652v12.058l-9.924 3.653V13.208zm9.924 18.496v12.104l-9.924-3.652V28.051l9.924 3.652zm10.001-5.045l-9.035 3.325-8.974-3.302 9.036-3.325 8.973 3.302zm1.854 1.393v12.104l-9.924 3.652V31.703l9.924-3.652z" fill="#FC85B4" stroke="#FC85B4" stroke-width=".35"/></g><defs><clipPath id="clip0"><path fill="#fff" d="M0 0h50v50H0z"/></clipPath></defs></svg>