<svg width="41" height="41" fill="none" xmlns="http://www.w3.org/2000/svg"><circle cx="20.5" cy="20.5" r="20.5" fill="#fff"/><path d="M25.045 10h-10.09A5.962 5.962 0 009 15.955v10.09A5.962 5.962 0 0014.955 32h10.09A5.962 5.962 0 0031 26.045v-10.09A5.962 5.962 0 0025.045 10zm4.665 16.045a4.67 4.67 0 01-4.665 4.665h-10.09a4.67 4.67 0 01-4.665-4.665v-10.09a4.67 4.67 0 014.665-4.665h10.09a4.67 4.67 0 014.665 4.665v10.09z" fill="#A7A7A7"/><path d="M20 14.984A6.022 6.022 0 0013.985 21 6.022 6.022 0 0020 27.015 6.022 6.022 0 0026.015 21 6.022 6.022 0 0020 14.984zm0 10.742A4.731 4.731 0 0115.274 21 4.731 4.731 0 0120 16.274 4.731 4.731 0 0124.726 21 4.731 4.731 0 0120 25.726zm6.16-12.878a1.78 1.78 0 00-1.778 1.778c0 .98.797 1.777 1.777 1.777a1.78 1.78 0 001.778-1.777 1.78 1.78 0 00-1.778-1.778zm0 2.265a.488.488 0 110-.976.488.488 0 010 .976z" fill="#A7A7A7"/></svg>