<svg width="41" height="41" fill="none" xmlns="http://www.w3.org/2000/svg"><circle cx="20.5" cy="20.5" r="20.5" fill="#fff"/><path d="M28.54 10H12.46A2.464 2.464 0 0010 12.46v16.08A2.464 2.464 0 0012.46 31h16.08A2.464 2.464 0 0031 28.54V12.46A2.464 2.464 0 0028.54 10zm.82 18.54c0 .451-.369.82-.82.82h-4.677v-6.686h2.535l.418-2.543h-2.953v-1.764c0-.696.535-1.23 1.23-1.23h1.682v-2.543h-1.681a3.773 3.773 0 00-3.773 3.78v1.757H18.86v2.543h2.462v6.685h-8.86a.821.821 0 01-.82-.82V12.461c0-.452.368-.82.82-.82H28.54c.452 0 .82.368.82.82v16.078z" fill="#A7A7A7"/></svg>