<svg width="41" height="41" fill="none" xmlns="http://www.w3.org/2000/svg"><circle cx="20.5" cy="20.5" r="20.5" fill="#fff"/><path d="M23.888 20.404l-5.625-3.516a.703.703 0 00-1.076.596v7.032a.703.703 0 001.076.596l5.625-3.516a.703.703 0 000-1.192zm-5.294 2.843v-4.494L22.189 21l-3.595 2.247z" fill="#A7A7A7"/><path d="M28.484 11.86H11.516A3.52 3.52 0 008 15.374v11.25a3.52 3.52 0 003.516 3.516h16.968A3.52 3.52 0 0032 26.625v-11.25a3.52 3.52 0 00-3.516-3.516zm2.11 14.765c0 1.163-.947 2.11-2.11 2.11H11.516a2.112 2.112 0 01-2.11-2.11v-11.25c0-1.163.946-2.11 2.11-2.11h16.968c1.163 0 2.11.947 2.11 2.11v11.25z" fill="#A7A7A7"/></svg>