<svg width="199" height="442" fill="none" xmlns="http://www.w3.org/2000/svg"><path fill-rule="evenodd" clip-rule="evenodd" d="M146.902 263.345c-5.286-13.346-17.185-22.34-22.612-35.629-6.694-16.392-18.872-33.977-12.557-50.495 6.296-16.471 28.387-19.048 42.942-28.992 14.616-9.986 26.359-23.009 42.797-29.587 22.82-9.132 51.436-31.31 70.523-15.759 20.306 16.543.207 50.962 4.402 76.802 2.631 16.206 13.554 29.415 15.489 45.718 2.388 20.12 6.634 41.66-3.005 59.457-10.218 18.866-30.396 29.691-50 38.41-21.347 9.495-47.959 26.937-67.3 13.763-21.527-14.663-11.091-49.475-20.679-73.688z" fill="#FFECF2"/><path clip-rule="evenodd" d="M137.798 274.579c-6.115-15.442-19.884-25.849-26.163-41.225-7.746-18.968-21.837-39.315-14.53-58.428 7.285-19.059 32.846-22.041 49.688-33.547 16.912-11.555 30.5-26.624 49.52-34.235 26.406-10.566 59.517-36.229 81.603-18.235 23.495 19.142.239 58.969 5.093 88.867 3.044 18.753 15.683 34.037 17.922 52.901 2.763 23.28 7.677 48.205-3.477 68.798-11.822 21.83-35.171 34.355-57.854 44.444-24.701 10.986-55.494 31.168-77.874 15.925-24.909-16.966-12.832-57.248-23.928-85.265z" stroke="#FFD0E0" stroke-width="2"/></svg>